<svg id="Layer_1" data-name="Layer 1" xmlns="http://www.w3.org/2000/svg" width="394.6" height="151.2" viewBox="0 0 394.6 151.2"><defs><style>.cls-1{fill:#f4783c;}.cls-2{fill:#414042;}</style></defs><title>Artboard 2</title><path class="cls-1" d="M9.6,112.4a7,7,0,0,1-5.2-2.2A7,7,0,0,1,2.2,105a7.36,7.36,0,0,1,1.4-4.3l66-95.4a6.66,6.66,0,0,1,6-3,6.88,6.88,0,0,1,5.2,2.2A7.26,7.26,0,0,1,83,9.7V97.8H97.7a6.88,6.88,0,0,1,5.2,2.2,7.26,7.26,0,0,1,2.2,5.2,6.88,6.88,0,0,1-2.2,5.2,7.26,7.26,0,0,1-5.2,2.2H83v29.3a7,7,0,0,1-2.2,5.2,7.26,7.26,0,0,1-5.2,2.2,6.88,6.88,0,0,1-5.2-2.2,7.26,7.26,0,0,1-2.2-5.2V112.4ZM68.3,97.7V33.1L23.6,97.7Z"/><path class="cls-2" d="M75.6,2.2a6.88,6.88,0,0,1,5.2,2.2A7.26,7.26,0,0,1,83,9.6V97.7H97.7a6.88,6.88,0,0,1,5.2,2.2,7.26,7.26,0,0,1,2.2,5.2,6.88,6.88,0,0,1-2.2,5.2,7.26,7.26,0,0,1-5.2,2.2H83v29.3a7,7,0,0,1-2.2,5.2,7.26,7.26,0,0,1-5.2,2.2,6.88,6.88,0,0,1-5.2-2.2,7.26,7.26,0,0,1-2.2-5.2V112.4H9.6a7,7,0,0,1-5.2-2.2A7,7,0,0,1,2.2,105a7.36,7.36,0,0,1,1.4-4.3l66-95.4a7,7,0,0,1,6-3.1m-52,95.5H68.3V33.1L23.6,97.7M75.6,0a8.86,8.86,0,0,0-7.8,4L1.8,99.4a9.64,9.64,0,0,0,1,12.4,9.13,9.13,0,0,0,6.8,2.8H66.1v27a9.29,9.29,0,0,0,2.8,6.8,9.13,9.13,0,0,0,6.8,2.8,9.29,9.29,0,0,0,6.8-2.8,9.13,9.13,0,0,0,2.8-6.8v-27H97.8a9.29,9.29,0,0,0,6.8-2.8,9.13,9.13,0,0,0,2.8-6.8,9.56,9.56,0,0,0-9.6-9.6H85.2V9.6a9.29,9.29,0,0,0-2.8-6.8A9.13,9.13,0,0,0,75.6,0ZM27.9,95.4,66.1,40.2V95.4Z"/><path class="cls-1" d="M296.8,112.4a7.51,7.51,0,0,1-7.4-7.4,7.36,7.36,0,0,1,1.4-4.3l66-95.4a6.66,6.66,0,0,1,6-3A6.88,6.88,0,0,1,368,4.5a7.26,7.26,0,0,1,2.2,5.2V97.8h14.7a6.88,6.88,0,0,1,5.2,2.2,7.26,7.26,0,0,1,2.2,5.2,6.88,6.88,0,0,1-2.2,5.2,7.26,7.26,0,0,1-5.2,2.2H370.2v29.3a7,7,0,0,1-2.2,5.2,7.26,7.26,0,0,1-5.2,2.2,6.88,6.88,0,0,1-5.2-2.2,7.26,7.26,0,0,1-2.2-5.2V112.4Zm58.7-14.7V33.1L310.8,97.7Z"/><path class="cls-2" d="M362.8,2.2A6.88,6.88,0,0,1,368,4.4a7.26,7.26,0,0,1,2.2,5.2V97.7h14.7a6.88,6.88,0,0,1,5.2,2.2,7.26,7.26,0,0,1,2.2,5.2,6.88,6.88,0,0,1-2.2,5.2,7.26,7.26,0,0,1-5.2,2.2H370.2v29.3A7,7,0,0,1,368,147a7.26,7.26,0,0,1-5.2,2.2,6.88,6.88,0,0,1-5.2-2.2,7.26,7.26,0,0,1-2.2-5.2V112.4H296.7a7.51,7.51,0,0,1-7.4-7.4,7.36,7.36,0,0,1,1.4-4.3l66-95.4a7.27,7.27,0,0,1,6.1-3.1m-52,95.5h44.7V33.1L310.8,97.7M362.8,0A8.86,8.86,0,0,0,355,4L289,99.4a9.64,9.64,0,0,0,1,12.4,9.13,9.13,0,0,0,6.8,2.8h56.5v27a9.29,9.29,0,0,0,2.8,6.8,9.13,9.13,0,0,0,6.8,2.8,9.29,9.29,0,0,0,6.8-2.8,9.13,9.13,0,0,0,2.8-6.8v-27H385a9.29,9.29,0,0,0,6.8-2.8,9.13,9.13,0,0,0,2.8-6.8,9.56,9.56,0,0,0-9.6-9.6H372.5V9.6a9.29,9.29,0,0,0-2.8-6.8A9.51,9.51,0,0,0,362.8,0ZM315.1,95.4l38.2-55.2V95.4Z"/></svg>