<svg id="Layer_1" data-name="Layer 1" xmlns="http://www.w3.org/2000/svg" width="158.45" height="225" viewBox="0 0 158.45 225"><defs><style>.cls-1{fill:#a5daff;}.cls-2{fill:#c7ebff;}.cls-3{fill:#56a9d8;}.cls-4{fill:#414042;}.cls-5{fill:#70c1e5;}.cls-6{fill:#f4783c;}.cls-7{fill:#f78557;}</style></defs><title>Artboard 5</title><circle class="cls-1" cx="79.22" cy="79.22" r="76.99"/><path class="cls-2" d="M156.21,79.22a77,77,0,0,1-77,77c-42.52,0-65.8-34.47-65.8-77s23.28-77,65.8-77A77,77,0,0,1,156.21,79.22Z"/><path class="cls-3" d="M80.82,156.21c-29.46,0-54.72-34.47-54.72-77s27.17-77,54.72-77Z"/><path class="cls-4" d="M80.82,2.24v154c-29.46,0-54.72-34.47-54.72-77s27.17-77,54.72-77M83.06,0H80.82C66.68,0,52.28,8.55,41.33,23.46A87.93,87.93,0,0,0,28.65,48.57a99.49,99.49,0,0,0-4.78,30.65,104.22,104.22,0,0,0,4.5,30.62A86.43,86.43,0,0,0,40.6,135a61.14,61.14,0,0,0,18.1,17.11,42.7,42.7,0,0,0,22.13,6.37h2.24V0Z"/><path class="cls-5" d="M80.82,156.21c-29.46,0-38.73-34.47-38.73-77s11.19-77,38.73-77Z"/><path class="cls-3" d="M156.21,79.22a77,77,0,0,1-77,77V2.24A77,77,0,0,1,156.21,79.22Z"/><path class="cls-5" d="M145,79.22c0,42.52-23.28,77-65.8,77V2.24C121.74,2.24,145,36.71,145,79.22Z"/><path class="cls-1" d="M79.22,156.21c29.46,0,54.72-34.47,54.72-77s-27.17-77-54.72-77Z"/><path class="cls-4" d="M79.22,2.24c27.55,0,54.72,34.47,54.72,77s-25.25,77-54.72,77V2.24m0-2.24H77V158.45h2.24a42.7,42.7,0,0,0,22.13-6.37A61.14,61.14,0,0,0,119.45,135a86.43,86.43,0,0,0,12.22-25.12,104.22,104.22,0,0,0,4.5-30.62,99.49,99.49,0,0,0-4.78-30.65,87.93,87.93,0,0,0-12.68-25.11C107.76,8.55,93.37,0,79.22,0Z"/><path class="cls-2" d="M79.22,156.21c29.46,0,40.33-34.47,40.33-77s-12.79-77-40.33-77Z"/><path class="cls-6" d="M65.74,200.75h27a0,0,0,0,1,0,0v15.18a6.84,6.84,0,0,1-6.84,6.84H72.58a6.84,6.84,0,0,1-6.84-6.84V200.75A0,0,0,0,1,65.74,200.75Z"/><path class="cls-7" d="M80.92,222.76H72.58a6.84,6.84,0,0,1-6.84-6.84V195.8h22v20.13A6.84,6.84,0,0,1,80.92,222.76Z"/><rect class="cls-6" x="61.96" y="191.41" width="34.52" height="7.51" rx="2.88" ry="2.88"/><rect class="cls-7" x="61.96" y="191.41" width="26.53" height="7.51" rx="2.88" ry="2.88"/><path class="cls-4" d="M152.22,48.39A79.16,79.16,0,0,0,79.22,0H77V0A79.2,79.2,0,0,0,23.2,135.24a80.1,80.1,0,0,0,6.73,6l30.26,50.92a5.08,5.08,0,0,0-.46,2.12V196A5.12,5.12,0,0,0,63.5,201v14.94A9.08,9.08,0,0,0,72.58,225H85.87a9.08,9.08,0,0,0,9.07-9.07V201A5.12,5.12,0,0,0,98.72,196v-1.76a5.08,5.08,0,0,0-.46-2.12l31-51.51a80.21,80.21,0,0,0,6-5.42,79.31,79.31,0,0,0,17-86.86Zm-73,110.06a79,79,0,0,0,22.91-3.36L88.86,189.18H69.59L56.32,155.09A78.78,78.78,0,0,0,77,158.41v0ZM31.51,139.54l-.08,0A77,77,0,0,1,77,2.27v153.9a76.63,76.63,0,0,1-45.35-16.43Zm16.87,12.68q2.57,1.09,5.19,2l13.62,35H64.84a5.09,5.09,0,0,0-3.17,1.1l-27.1-45.6A78.94,78.94,0,0,0,48.39,152.22Zm37.48,70.54H72.58a6.84,6.84,0,0,1-6.84-6.84V201.16h27v14.76A6.84,6.84,0,0,1,85.87,222.76ZM96.49,196a2.88,2.88,0,0,1-1.54,2.55v-.08H63.5v.08A2.88,2.88,0,0,1,62,196v-1.76a2.88,2.88,0,0,1,2.88-2.88H93.61a2.88,2.88,0,0,1,2.88,2.88Zm.3-5.76a5.09,5.09,0,0,0-3.18-1.11H91.26l13.62-35q2.62-.9,5.19-2a78.92,78.92,0,0,0,14.4-7.94Zm30.79-51.15h0l0,0a76.66,76.66,0,0,1-48.31,17V2.24a77,77,0,0,1,48.35,136.9Z"/></svg>