<svg id="Layer_1" data-name="Layer 1" xmlns="http://www.w3.org/2000/svg" width="110.64" height="65.86" viewBox="0 0 110.64 65.86"><defs><style>.cls-1{fill:#fff;}.cls-2{fill:#d1d1d1;}</style></defs><title>Artboard 1</title><path class="cls-1" d="M96.2,38.27h-.41q0-.52,0-1.06A13.05,13.05,0,0,0,81,24.29a25.07,25.07,0,0,0-49.43-3.46q-.86-.09-1.75-.09A17.53,17.53,0,0,0,12.27,38.27c0,.06,0,.12,0,.18a13.2,13.2,0,0,0-11,13h0A13.19,13.19,0,0,0,14.44,64.57H96.2a13.19,13.19,0,0,0,13.15-13.15h0A13.19,13.19,0,0,0,96.2,38.27Z"/><path class="cls-2" d="M56,1.29a25.07,25.07,0,0,1,25,23A13.05,13.05,0,0,1,95.83,37.21q0,.54,0,1.06h.41a13.19,13.19,0,0,1,13.15,13.15h0A13.19,13.19,0,0,1,96.2,64.57H14.44A13.19,13.19,0,0,1,1.29,51.42h0a13.2,13.2,0,0,1,11-13c0-.06,0-.12,0-.18A17.53,17.53,0,0,1,29.79,20.74q.89,0,1.75.09A25.07,25.07,0,0,1,56,1.29M56,0A26.37,26.37,0,0,0,30.55,19.47l-.76,0A18.82,18.82,0,0,0,11,37.4a14.5,14.5,0,0,0-11,14A14.48,14.48,0,0,0,14.44,65.86H96.2A14.44,14.44,0,0,0,97.12,37,14.36,14.36,0,0,0,82.78,22.87l-.66,0A26.36,26.36,0,0,0,56,0Z"/></svg>