<svg id="Layer_1" data-name="Layer 1" xmlns="http://www.w3.org/2000/svg" width="67.95" height="40.45" viewBox="0 0 67.95 40.45"><defs><style>.cls-1{fill:#fff;}.cls-2{fill:#d1d1d1;}</style></defs><title>Artboard 3</title><path class="cls-1" d="M8.87,23.5h.25q0-.32,0-.65a8,8,0,0,1,9.12-7.94,15.4,15.4,0,0,1,30.36-2.12q.53-.05,1.07-.05A10.76,10.76,0,0,1,60.41,23.5s0,.07,0,.11a8.11,8.11,0,0,1,6.74,8h0a8.1,8.1,0,0,1-8.08,8.08H8.87A8.1,8.1,0,0,1,.79,31.58h0A8.1,8.1,0,0,1,8.87,23.5Z"/><path class="cls-2" d="M33.56.79a15.4,15.4,0,0,1,15,12q.53-.05,1.07-.05A10.76,10.76,0,0,1,60.41,23.5s0,.07,0,.11a8.11,8.11,0,0,1,6.74,8h0a8.1,8.1,0,0,1-8.08,8.08H8.87A8.1,8.1,0,0,1,.79,31.58h0A8.1,8.1,0,0,1,8.87,23.5h.25q0-.32,0-.65a8,8,0,0,1,9.12-7.94A15.39,15.39,0,0,1,33.56.79m0-.79a16.19,16.19,0,0,0-16,14.06h-.4A8.82,8.82,0,0,0,8.3,22.73a8.87,8.87,0,0,0,.57,17.72H59.08A8.87,8.87,0,0,0,61.2,23a11.57,11.57,0,0,0-11.55-11h-.46A16.19,16.19,0,0,0,33.56,0Z"/></svg>