<svg id="Layer_1" data-name="Layer 1" xmlns="http://www.w3.org/2000/svg" width="83.11" height="12.47" viewBox="0 0 83.11 12.47"><defs><style>.cls-1{fill:#a5daff;}</style></defs><title>Artboard 4</title><path class="cls-1" d="M82.11,6.62H8.5a1,1,0,0,1,0-2H82.11a1,1,0,0,1,0,2Z"/><path class="cls-1" d="M24.61,12.47H1a1,1,0,0,1,0-2H24.61a1,1,0,0,1,0,2Z"/><path class="cls-1" d="M56.4,12.47H42.79a1,1,0,0,1,0-2H56.4a1,1,0,0,1,0,2Z"/><path class="cls-1" d="M69.26,2H25.65a1,1,0,0,1,0-2H69.26a1,1,0,0,1,0,2Z"/></svg>