<svg id="Layer_1" data-name="Layer 1" xmlns="http://www.w3.org/2000/svg" xmlns:xlink="http://www.w3.org/1999/xlink" width="623.23" height="241.26" viewBox="0 0 623.23 241.26"><defs><style>.cls-1,.cls-2,.cls-7{fill:none;}.cls-2{stroke:#414042;stroke-width:3.26px;}.cls-12,.cls-13,.cls-14,.cls-2,.cls-3,.cls-5,.cls-6,.cls-7,.cls-9{stroke-linecap:round;}.cls-12,.cls-13,.cls-14,.cls-2,.cls-3,.cls-4,.cls-5,.cls-6,.cls-7,.cls-9{stroke-miterlimit:10;}.cls-11,.cls-3{fill:#d1d3d4;}.cls-14,.cls-3,.cls-4,.cls-5,.cls-6,.cls-7,.cls-9{stroke:#58595b;}.cls-14,.cls-3,.cls-5{stroke-width:0.53px;}.cls-4{fill:#414042;stroke-width:0.49px;}.cls-5{fill:#e58423;}.cls-13,.cls-6{fill:#ccc;stroke-width:2.1px;}.cls-7{stroke-width:1.78px;}.cls-8{clip-path:url(#clip-path);}.cls-9{fill:#f4783c;}.cls-12,.cls-9{stroke-width:1.91px;}.cls-10{fill:#6d6e71;}.cls-12{fill:#e6e7e8;}.cls-12,.cls-13{stroke:#6d6e71;}.cls-14{fill:#b2b2b2;}</style><clipPath id="clip-path"><path class="cls-1" d="M462.25,202.19h30.89a0,0,0,0,1,0,0v34.08a3.34,3.34,0,0,1-3.34,3.34H465.58a3.34,3.34,0,0,1-3.34-3.34V202.19A0,0,0,0,1,462.25,202.19Z"/></clipPath></defs><title>desktop</title><line class="cls-2" x1="1.48" y1="239.66" x2="621.48" y2="239.66"/><path class="cls-3" d="M501.78,172.26h0a1.8,1.8,0,0,0-2.31,1.05l-20.31,54.16c-.35.92-1.47,9-1.47,9s4.48-6.85,4.83-7.77l20.31-54.16A1.8,1.8,0,0,0,501.78,172.26Z"/><path class="cls-4" d="M479.16,227.47c-.35.92-1.47,9-1.47,9s4.48-6.85,4.83-7.77Z"/><rect class="cls-5" x="498.37" y="171.97" width="3.59" height="9.22" rx="1.79" ry="1.79" transform="translate(93.85 -164.38) rotate(20.56)"/><rect class="cls-6" x="465.99" y="162.76" width="8.65" height="75.54"/><path class="cls-7" d="M462.25,202.19h30.89a0,0,0,0,1,0,0v34.15a3.26,3.26,0,0,1-3.26,3.26H465.51a3.26,3.26,0,0,1-3.26-3.26V202.19A0,0,0,0,1,462.25,202.19Z"/><g class="cls-8"><line class="cls-7" x1="463.04" y1="203.34" x2="492.09" y2="238.74"/><line class="cls-7" x1="467.01" y1="199.36" x2="496.06" y2="234.77"/><line class="cls-7" x1="470.98" y1="195.39" x2="500.03" y2="230.79"/><line class="cls-7" x1="474.96" y1="191.42" x2="504" y2="226.82"/><line class="cls-7" x1="457.93" y1="206.09" x2="486.98" y2="241.5"/><line class="cls-7" x1="452.83" y1="208.85" x2="481.88" y2="244.26"/><line class="cls-7" x1="447.73" y1="211.61" x2="476.77" y2="247.02"/><line class="cls-7" x1="480.06" y1="191.04" x2="451.28" y2="226.71"/><line class="cls-7" x1="484.09" y1="195.06" x2="455.3" y2="230.74"/><line class="cls-7" x1="488.12" y1="199.09" x2="459.33" y2="234.76"/><line class="cls-7" x1="492.14" y1="203.12" x2="463.36" y2="238.79"/><line class="cls-7" x1="496.17" y1="207.15" x2="467.39" y2="242.82"/><line class="cls-7" x1="500.2" y1="211.18" x2="471.42" y2="246.85"/><line class="cls-7" x1="504.23" y1="215.2" x2="475.44" y2="250.88"/></g><path class="cls-6" d="M64,93.19h8.13a0,0,0,0,1,0,0v81.32a4.07,4.07,0,0,1-4.07,4.07h0A4.07,4.07,0,0,1,64,174.51V93.19A0,0,0,0,1,64,93.19Z" transform="translate(90.53 -14.42) rotate(35.11)"/><circle class="cls-9" cx="125.63" cy="123.01" r="9.47" transform="translate(-47.26 155.04) rotate(-54.89)"/><rect class="cls-6" x="73.7" y="83.24" width="10.14" height="14.41" rx="2.96" ry="2.96" transform="translate(65.83 -28.79) rotate(34.86)"/><rect class="cls-6" x="79.08" y="81.61" width="16.81" height="29.81" rx="5.48" ry="5.48" transform="translate(70.86 -32.68) rotate(34.86)"/><path class="cls-6" d="M137.12,93l-36.45-4.69L84.4,111.72l17,32.56a6.2,6.2,0,0,0,10-.22l28.94-41.55A6.2,6.2,0,0,0,137.12,93Z"/><path class="cls-6" d="M55.61,160.58h0a4.07,4.07,0,0,1,4.07,4.07v73.62a0,0,0,0,1,0,0H51.55a0,0,0,0,1,0,0V164.65a4.07,4.07,0,0,1,4.07-4.07Z" transform="translate(-64.85 31.05) rotate(-20)"/><rect class="cls-6" x="88.57" y="222.02" width="7.18" height="7.18" rx="1.31" ry="1.31"/><rect class="cls-6" x="32.89" y="226.24" width="69.84" height="13.42" rx="6.71" ry="6.71"/><circle class="cls-6" cx="44.18" cy="168.01" r="7.67"/><rect class="cls-6" x="532.81" y="194.38" width="44.24" height="44.24" rx="3.86" ry="3.86"/><rect class="cls-6" x="528.95" y="192.84" width="51.96" height="13.37" rx="3.86" ry="3.86"/><path class="cls-10" d="M173,223.27H114.26a16.41,16.41,0,0,1,1.17,3h57.19a4.41,4.41,0,0,1,4.4,4.4h0a4.41,4.41,0,0,1-4.4,4.4H115.42a16.41,16.41,0,0,1-1.17,3H173a7.45,7.45,0,0,0,7.43-7.43h0A7.45,7.45,0,0,0,173,223.27Z"/><path class="cls-11" d="M115.42,235.09h57.19a4.41,4.41,0,0,0,4.4-4.4h0a4.41,4.41,0,0,0-4.4-4.4H115.42a16.52,16.52,0,0,1,0,8.79Z"/><path class="cls-10" d="M119.07,207.76H177.8a16.41,16.41,0,0,0-1.17,3H119.44a4.41,4.41,0,0,0-4.4,4.4h0a4.41,4.41,0,0,0,4.4,4.4h57.19a16.41,16.41,0,0,0,1.17,3H119.07a7.45,7.45,0,0,1-7.43-7.43h0A7.45,7.45,0,0,1,119.07,207.76Z"/><path class="cls-11" d="M176.63,219.58H119.44a4.41,4.41,0,0,1-4.4-4.4h0a4.41,4.41,0,0,1,4.4-4.4h57.19a16.52,16.52,0,0,0,0,8.79Z"/><path class="cls-12" d="M434.17.9H188.78a7.85,7.85,0,0,0-7.83,7.83V191.47a7.85,7.85,0,0,0,7.83,7.83H434.17a7.85,7.85,0,0,0,7.83-7.83V8.73A7.85,7.85,0,0,0,434.17.9Zm-.87,159.74H189.65V9.23H433.3Z"/><path class="cls-12" d="M434.17.9H188.78a7.85,7.85,0,0,0-7.83,7.83V168.63H442V8.73A7.85,7.85,0,0,0,434.17.9Zm-.87,159.74H189.65V9.23H433.3Z"/><path class="cls-12" d="M333.88,225.41l-3.26-26.11H292.33l-3.26,26.11L277,233a2.54,2.54,0,0,0,1.35,4.69h66.29A2.54,2.54,0,0,0,346,233Z"/><circle class="cls-13" cx="311.48" cy="184.14" r="7.72"/><rect class="cls-6" x="243.49" y="231.56" width="135.96" height="6.09" rx="2.07" ry="2.07"/><rect class="cls-14" x="247.74" y="228.3" width="40.42" height="2.39" rx="1.2" ry="1.2"/><rect class="cls-14" x="293.91" y="228.3" width="60" height="2.39" rx="1.2" ry="1.2"/><rect class="cls-14" x="358.85" y="228.3" width="14.32" height="2.39" rx="1.2" ry="1.2"/><path class="cls-6" d="M412,237.22H391a10.51,10.51,0,0,1,21,0Z"/></svg>