<svg id="Layer_1" data-name="Layer 1" xmlns="http://www.w3.org/2000/svg" width="143.5" height="33.64" viewBox="0 0 143.5 33.64"><defs><style>.cls-1{fill:#fff;}</style></defs><title>Error</title><path class="cls-1" d="M19.4,18h-15V29.69H21.7v3.48H0V.47H21.45V4h-17V14.53h15Z"/><path class="cls-1" d="M31.31,19V33.17H26.88V.49H38.72q5.37,0,8.2,2.38a8.53,8.53,0,0,1,2.83,6.92,7.4,7.4,0,0,1-1.31,4.38,8.89,8.89,0,0,1-3.83,3A6.7,6.7,0,0,1,48.48,20a9.29,9.29,0,0,1,1.18,4.86v3.08A10.24,10.24,0,0,0,50,30.66a4.11,4.11,0,0,0,1.17,2v.54H46.6a3.66,3.66,0,0,1-1.12-2.25,18.62,18.62,0,0,1-.25-3.05v-3a5.91,5.91,0,0,0-1.55-4.27A5.49,5.49,0,0,0,39.53,19Zm0-3.48h7q3.75,0,5.4-1.42a5.42,5.42,0,0,0,1.65-4.34,5.58,5.58,0,0,0-1.61-4.27Q42.11,4,38.72,4H31.31Z"/><path class="cls-1" d="M61.78,19V33.17H57.36V.49H69.2q5.37,0,8.2,2.38a8.53,8.53,0,0,1,2.83,6.92,7.4,7.4,0,0,1-1.31,4.38,8.89,8.89,0,0,1-3.83,3A6.7,6.7,0,0,1,79,20a9.29,9.29,0,0,1,1.18,4.86v3.08a10.25,10.25,0,0,0,.34,2.74,4.12,4.12,0,0,0,1.17,2v.54H77.08A3.66,3.66,0,0,1,76,30.93a18.62,18.62,0,0,1-.25-3.05v-3a5.91,5.91,0,0,0-1.55-4.27A5.49,5.49,0,0,0,70,19Zm0-3.48h7q3.75,0,5.4-1.42A5.42,5.42,0,0,0,75.8,9.76a5.58,5.58,0,0,0-1.61-4.27Q72.58,4,69.2,4H61.78Z"/><path class="cls-1" d="M112.59,19.74a14,14,0,0,1-3.72,9.95,12.64,12.64,0,0,1-9.65,4,12,12,0,0,1-9.31-4,14.25,14.25,0,0,1-3.58-9.95V13.92A14.3,14.3,0,0,1,89.91,4a12,12,0,0,1,9.31-4,12.62,12.62,0,0,1,9.65,4,14,14,0,0,1,3.72,10Zm-4.42-5.86a11,11,0,0,0-2.43-7.37,8.09,8.09,0,0,0-6.51-2.87,7.49,7.49,0,0,0-6.17,2.87,11.42,11.42,0,0,0-2.3,7.37v5.86a11.49,11.49,0,0,0,2.3,7.41A7.49,7.49,0,0,0,99.22,30a8.09,8.09,0,0,0,6.52-2.86,11.12,11.12,0,0,0,2.42-7.42Z"/><path class="cls-1" d="M123.61,19V33.17h-4.42V.49H131q5.37,0,8.2,2.38a8.53,8.53,0,0,1,2.83,6.92,7.41,7.41,0,0,1-1.31,4.38,8.9,8.9,0,0,1-3.83,3A6.7,6.7,0,0,1,140.78,20,9.3,9.3,0,0,1,142,24.84v3.08a10.25,10.25,0,0,0,.34,2.74,4.11,4.11,0,0,0,1.17,2v.54h-4.56a3.66,3.66,0,0,1-1.12-2.25,18.51,18.51,0,0,1-.25-3.05v-3A5.91,5.91,0,0,0,136,20.62,5.49,5.49,0,0,0,131.83,19Zm0-3.48h7q3.75,0,5.4-1.42a5.42,5.42,0,0,0,1.65-4.34A5.58,5.58,0,0,0,136,5.49Q134.42,4,131,4h-7.41Z"/></svg>