<svg id="Layer_1" data-name="Layer 1" xmlns="http://www.w3.org/2000/svg" width="77.25" height="80.59" viewBox="0 0 77.25 80.59"><defs><style>.cls-1{fill:#58595b;}.cls-2{fill:#70e8a0;}</style></defs><title>leave</title><rect class="cls-1" x="37.99" y="37.14" width="2.38" height="43.45"/><path class="cls-2" d="M47.29,24.14c0,8-8.11,14-8.11,14s-8.11-6.94-8.11-14S39.18,1.51,39.18,1.51,47.29,16.15,47.29,24.14Z"/><path class="cls-1" d="M39.81,1.16,39.17,0l-.62,1.18c-.33.64-8.19,15.78-8.19,23,0,7.33,8,14.28,8.36,14.57l.43.37.46-.34c.34-.26,8.4-6.35,8.4-14.6C48,16.06,40.15,1.77,39.81,1.16Zm-6.59,16,5.48,5.91V29.6l-6.76-7.29A32.63,32.63,0,0,1,33.22,17.21Zm2.1-5.65,3.37,3.64v6.48l-5.12-5.53C34.1,14.63,34.7,13.07,35.32,11.57ZM44.89,16l-5.22,5.63V15.2l3.48-3.75C43.77,12.94,44.37,14.5,44.89,16Zm-5.22,7.07,5.57-6a31,31,0,0,1,1.21,5.17L39.67,29.6Zm3.06-12.65-3.06,3.3V4C40.48,5.55,41.61,7.86,42.73,10.46Zm-4-6.38v9.68l-3-3.19C36.82,8,37.92,5.69,38.7,4.09Zm-6.91,20c0-.17,0-.35,0-.54L38.7,31v5.69C36.6,34.68,31.79,29.39,31.79,24.14Zm7.88,12.69V31l6.89-7.44c0,.18,0,.37,0,.54C46.58,30.09,41.74,35,39.67,36.83Z"/><rect class="cls-1" x="44.69" y="52.17" width="2.38" height="19.83" transform="translate(53.11 -14.77) rotate(41.84)"/><path class="cls-2" d="M67.21,50.42c-5.33,6-15.4,5-15.4,5S50.4,44.88,55.12,39.6,76.26,28.15,76.26,28.15,72.54,44.47,67.21,50.42Z"/><path class="cls-1" d="M77,28.31l.3-1.3L76,27.48c-.68.25-16.63,6.29-21.42,11.64S51,55.11,51.1,55.56l.08.57.57.05c.43,0,10.49.87,16-5.28S76.8,29,77,28.31ZM61.34,35.87l.14,8.06-4.32,4.83L57,38.82A32.63,32.63,0,0,1,61.34,35.87Zm5.33-2.8.08,5-4.32,4.83-.13-7.54C63.72,34.53,65.21,33.77,66.67,33.07Zm4.14,9.72-7.65.72,4.32-4.83,5.09-.48C72.05,39.73,71.46,41.29,70.82,42.79Zm-8.6,1.79,8.15-.76a31,31,0,0,1-2.55,4.66l-9.93.93Zm10.72-7.39-4.48.42L75,30.31C74.53,32,73.83,34.5,72.93,37.19Zm1.25-7.44L67.72,37l-.07-4.35C70.16,31.42,72.52,30.42,74.18,29.75ZM55.66,40.08l.37-.39.17,10.14-3.8,4.24C52.21,51.14,52.15,44,55.66,40.08ZM53.06,54.79l3.87-4.32L67,49.53l-.35.41C62.7,54.38,55.82,54.81,53.06,54.79Z"/><rect class="cls-1" x="31.58" y="44.91" width="2.38" height="18.36" transform="translate(-28.65 39.01) rotate(-45)"/><path class="cls-2" d="M22.81,32.66C28.46,38.31,27,48.32,27,48.32s-10.64.82-15.65-4.19S1.08,22.4,1.08,22.4,17.17,27,22.81,32.66Z"/><path class="cls-1" d="M1.28,21.71,0,21.34l.4,1.27c.22.69,5.37,16.95,10.44,22S26.61,49.07,27.06,49l.57,0,.08-.57C27.77,48,29.16,38,23.32,32.16S1.94,21.9,1.28,21.71ZM8,37.72,16,38l4.58,4.58-9.93-.38A32.63,32.63,0,0,1,8,37.72ZM5.46,32.24l5,.19L15,37l-7.53-.29C6.76,35.27,6.08,33.74,5.46,32.24Zm9.94-3.6.29,7.67-4.58-4.58-.19-5.11C12.41,27.24,13.93,27.92,15.4,28.64Zm1.31,8.69-.31-8.18A31,31,0,0,1,20.91,32l.38,10ZM9.92,26.22l.17,4.5L3.17,23.8C4.85,24.34,7.29,25.18,9.92,26.22ZM2.56,24.57l6.85,6.85-4.35-.17C4,28.66,3.14,26.25,2.56,24.57Zm9.29,19.06-.37-.39,10.13.39,4,4C22.71,47.68,15.57,47.34,11.85,43.63ZM26.4,47l-4.1-4.1L21.92,32.8l.39.37C26.52,37.38,26.57,44.28,26.4,47Z"/></svg>