<svg id="Layer_1" data-name="Layer 1" xmlns="http://www.w3.org/2000/svg" width="682.84" height="308.64" viewBox="0 0 682.84 308.64"><defs><style>.cls-1{fill:#71c1e4;}.cls-2{fill:#424143;}.cls-3{fill:none;stroke:#424143;stroke-linecap:round;stroke-miterlimit:10;stroke-width:2.84px;}.cls-4,.cls-5{fill:#fff;}.cls-4{opacity:0.1;}.cls-6{fill:#f4783d;}</style></defs><title>door</title><rect class="cls-1" x="191.5" y="74.4" width="297.69" height="200.1" rx="11.36" ry="11.36"/><path class="cls-2" d="M597.07,274.56H57.36a1.42,1.42,0,1,1,0-2.84H597.07a1.42,1.42,0,1,1,0,2.84Z"/><path class="cls-2" d="M405.39,308.64H223.6a1.42,1.42,0,1,1,0-2.84h181.8a1.42,1.42,0,0,1,0,2.84Z"/><path class="cls-2" d="M617.25,274.56H605.89a1.42,1.42,0,0,1,0-2.84h11.36a1.42,1.42,0,0,1,0,2.84Z"/><path class="cls-2" d="M49.7,274.56H41.18a1.42,1.42,0,1,1,0-2.84H49.7a1.42,1.42,0,1,1,0,2.84Z"/><path class="cls-2" d="M469.54,289.46H461a1.42,1.42,0,0,1,0-2.84h8.52a1.42,1.42,0,1,1,0,2.84Z"/><path class="cls-2" d="M212.7,308.64h-8.52a1.42,1.42,0,1,1,0-2.84h8.52a1.42,1.42,0,1,1,0,2.84Z"/><path class="cls-2" d="M681.42,274.56H624.61a1.42,1.42,0,1,1,0-2.84h56.81a1.42,1.42,0,0,1,0,2.84Z"/><path class="cls-2" d="M29.83,274.56H1.42a1.42,1.42,0,1,1,0-2.84H29.83a1.42,1.42,0,1,1,0,2.84Z"/><path class="cls-2" d="M447.52,289.39H146.42a1.42,1.42,0,1,1,0-2.84h301.1a1.42,1.42,0,0,1,0,2.84Z"/><line class="cls-3" x1="340.06" y1="76.11" x2="340.06" y2="273.14"/><line class="cls-3" x1="323.02" y1="148.25" x2="323.02" y2="183.6"/><line class="cls-3" x1="357.1" y1="148.25" x2="357.1" y2="183.6"/><path class="cls-2" d="M87.72,274.56a1.42,1.42,0,0,1-1.42-1.42V1.42a1.42,1.42,0,1,1,2.84,0V273.14A1.42,1.42,0,0,1,87.72,274.56Z"/><path class="cls-2" d="M578.57,274.56a1.42,1.42,0,0,1-1.42-1.42V1.42a1.42,1.42,0,1,1,2.84,0V273.14A1.42,1.42,0,0,1,578.57,274.56Z"/><path class="cls-2" d="M479,77.24a8.53,8.53,0,0,1,8.52,8.52V263.14a8.53,8.53,0,0,1-8.52,8.52H201.16a8.53,8.53,0,0,1-8.52-8.52V85.76a8.53,8.53,0,0,1,8.52-8.52H479m0-2.84H201.16a11.4,11.4,0,0,0-11.36,11.36V263.14a11.4,11.4,0,0,0,11.36,11.36H479a11.4,11.4,0,0,0,11.36-11.36V85.76A11.4,11.4,0,0,0,479,74.4Z"/><path class="cls-4" d="M189.79,274.5H484.64A11.4,11.4,0,0,0,496,263.14V129.81a300.93,300.93,0,0,0-317.57,84.13v49.19A11.4,11.4,0,0,0,189.79,274.5Z"/><rect class="cls-5" x="244.76" y="213.78" width="190.6" height="7.88"/><path class="cls-2" d="M435,214.12v7.2H245.1v-7.2H435m.69-.69H244.41V222H435.7v-8.57Z"/><polygon class="cls-6" points="262.5 221.32 250.41 221.32 256.09 214.13 268.18 214.13 262.5 221.32"/><polygon class="cls-6" points="285.83 221.32 273.74 221.32 279.42 214.13 291.52 214.13 285.83 221.32"/><polygon class="cls-6" points="309.17 221.32 297.08 221.32 302.76 214.13 314.85 214.13 309.17 221.32"/><polygon class="cls-6" points="332.51 221.32 320.42 221.32 326.1 214.13 338.19 214.13 332.51 221.32"/><polygon class="cls-6" points="355.85 221.32 343.75 221.32 349.44 214.13 361.53 214.13 355.85 221.32"/><polygon class="cls-6" points="379.19 221.32 367.09 221.32 372.77 214.13 384.87 214.13 379.19 221.32"/><polygon class="cls-6" points="402.52 221.32 390.43 221.32 396.11 214.13 408.2 214.13 402.52 221.32"/><polygon class="cls-6" points="425.86 221.32 413.77 221.32 419.45 214.13 431.54 214.13 425.86 221.32"/><rect class="cls-2" x="243.51" y="207.72" width="3.19" height="77.54" rx="1.6" ry="1.6"/><circle class="cls-2" cx="245.1" cy="209.24" r="2.99"/><path class="cls-2" d="M248.28,283h-6.36a4.55,4.55,0,0,0-4.53,4.53h15.42A4.55,4.55,0,0,0,248.28,283Z"/><rect class="cls-2" x="433.42" y="207.72" width="3.19" height="77.54" rx="1.6" ry="1.6"/><circle class="cls-2" cx="435.01" cy="209.24" r="2.99"/><path class="cls-2" d="M438.19,283h-6.36a4.55,4.55,0,0,0-4.53,4.53h15.42A4.55,4.55,0,0,0,438.19,283Z"/></svg>