<svg id="Layer_1" data-name="Layer 1" xmlns="http://www.w3.org/2000/svg" width="599.91" height="7.2" viewBox="0 0 599.91 7.2"><defs><style>.cls-1{fill:#fff;}.cls-2{fill:#424143;}.cls-3{fill:#f4783d;}</style></defs><title>seal</title><rect class="cls-1" x="-0.34" y="-0.34" width="600.6" height="7.88"/><path class="cls-2" d="M599.91,0V7.2H0V0H599.91m.69-.69H-.69V7.88H600.6V-.69Z"/><polygon class="cls-3" points="417.39 7.2 405.3 7.2 410.98 0 423.08 0 417.39 7.2"/><polygon class="cls-3" points="394.07 7.2 381.98 7.2 387.66 0 399.76 0 394.07 7.2"/><polygon class="cls-3" points="370.75 7.2 358.66 7.2 364.34 0 376.44 0 370.75 7.2"/><polygon class="cls-3" points="347.43 7.2 335.34 7.2 341.02 0 353.12 0 347.43 7.2"/><polygon class="cls-3" points="324.11 7.2 312.02 7.2 317.7 0 329.79 0 324.11 7.2"/><polygon class="cls-3" points="300.79 7.2 288.7 7.2 294.38 0 306.47 0 300.79 7.2"/><polygon class="cls-3" points="277.47 7.2 265.38 7.2 271.06 0 283.15 0 277.47 7.2"/><polygon class="cls-3" points="254.15 7.2 242.06 7.2 247.74 0 259.83 0 254.15 7.2"/><polygon class="cls-3" points="230.83 7.2 218.74 7.2 224.42 0 236.51 0 230.83 7.2"/><polygon class="cls-3" points="207.51 7.2 195.42 7.2 201.1 0 213.19 0 207.51 7.2"/><polygon class="cls-3" points="184.19 7.2 172.1 7.2 177.78 0 189.87 0 184.19 7.2"/><polygon class="cls-3" points="160.87 7.2 148.78 7.2 154.46 0 166.55 0 160.87 7.2"/><polygon class="cls-3" points="137.55 7.2 125.46 7.2 131.14 0 143.23 0 137.55 7.2"/><polygon class="cls-3" points="114.23 7.2 102.14 7.2 107.82 0 119.91 0 114.23 7.2"/><polygon class="cls-3" points="90.91 7.2 78.81 7.2 84.5 0 96.59 0 90.91 7.2"/><polygon class="cls-3" points="67.59 7.2 55.49 7.2 61.18 0 73.27 0 67.59 7.2"/><polygon class="cls-3" points="44.27 7.2 32.17 7.2 37.86 0 49.95 0 44.27 7.2"/><polygon class="cls-3" points="20.95 7.2 8.85 7.2 14.54 0 26.63 0 20.95 7.2"/><polygon class="cls-3" points="440.73 7.2 428.64 7.2 434.32 0 446.41 0 440.73 7.2"/><polygon class="cls-3" points="464.07 7.2 451.98 7.2 457.66 0 469.75 0 464.07 7.2"/><polygon class="cls-3" points="487.41 7.2 475.31 7.2 481 0 493.09 0 487.41 7.2"/><polygon class="cls-3" points="510.75 7.2 498.65 7.2 504.33 0 516.43 0 510.75 7.2"/><polygon class="cls-3" points="534.08 7.2 521.99 7.2 527.67 0 539.76 0 534.08 7.2"/><polygon class="cls-3" points="557.42 7.2 545.33 7.2 551.01 0 563.1 0 557.42 7.2"/><polygon class="cls-3" points="580.76 7.2 568.67 7.2 574.35 0 586.44 0 580.76 7.2"/></svg>