<svg id="Layer_1" data-name="Layer 1" xmlns="http://www.w3.org/2000/svg" width="191" height="8.59" viewBox="0 0 191 8.59"><defs><style>.cls-1{fill:#fff;}.cls-2{fill:#f4783d;}</style></defs><title>short-seal</title><rect class="cls-1" y="0.75" width="191" height="7.2"/><polygon class="cls-2" points="22.39 7.94 10.3 7.94 15.98 0.75 28.08 0.75 22.39 7.94"/><polygon class="cls-2" points="45.73 7.94 33.64 7.94 39.32 0.75 51.41 0.75 45.73 7.94"/><polygon class="cls-2" points="69.07 7.94 56.98 7.94 62.66 0.75 74.75 0.75 69.07 7.94"/><polygon class="cls-2" points="92.41 7.94 80.31 7.94 86 0.75 98.09 0.75 92.41 7.94"/><polygon class="cls-2" points="115.75 7.94 103.65 7.94 109.33 0.75 121.43 0.75 115.75 7.94"/><polygon class="cls-2" points="139.08 7.94 126.99 7.94 132.67 0.75 144.76 0.75 139.08 7.94"/><polygon class="cls-2" points="162.42 7.94 150.33 7.94 156.01 0.75 168.1 0.75 162.42 7.94"/><polygon class="cls-2" points="185.76 7.94 173.67 7.94 179.35 0.75 191.44 0.75 185.76 7.94"/></svg>