<svg id="Layer_1" data-name="Layer 1" xmlns="http://www.w3.org/2000/svg" width="57.25" height="136.99" viewBox="0 0 57.25 136.99"><defs><style>.cls-1,.cls-2{fill:#fff;stroke:#424143;stroke-linecap:round;stroke-miterlimit:10;}.cls-1{stroke-width:2.84px;}.cls-2{stroke-width:2.48px;}.cls-3{fill:#424143;}.cls-4{fill:#f4783d;}</style></defs><title>signage</title><rect class="cls-1" x="25.82" y="2.7" width="5.39" height="131.02" rx="2.7" ry="2.7"/><circle class="cls-1" cx="28.52" cy="5.9" r="4.31"/><circle class="cls-2" cx="28.52" cy="43.53" r="27.37"/><path class="cls-3" d="M44.46,130.46H12.57A6.55,6.55,0,0,0,6,137H51A6.55,6.55,0,0,0,44.46,130.46Z"/><path class="cls-4" d="M27.24,34.2c0-2.21,0-4.42,0-6.64A1.91,1.91,0,0,1,31,27.22a4.39,4.39,0,0,1,0,.81q0,6.34,0,12.68c0,.1,0,.2,0,.3a.62.62,0,0,0,.65.6.59.59,0,0,0,.62-.58c0-.35,0-.71,0-1.06q0-4.87,0-9.74a1.92,1.92,0,1,1,3.83,0c0,2.74,0,5.47,0,8.21,0,1.23,0,2.47,0,3.7,0,.5.23.78.64.78s.64-.28.64-.78c0-2.27,0-4.54,0-6.81a1.91,1.91,0,0,1,2.49-1.88,1.87,1.87,0,0,1,1.33,1.74c0,4.25.07,8.51-.13,12.76A56.69,56.69,0,0,1,40,55.16a15.72,15.72,0,0,1-.86,3,4.81,4.81,0,0,1-4.87,3.22c-2.16,0-4.31,0-6.47,0a5.46,5.46,0,0,1-5.18-3.31c-2.22-4.7-4.41-9.41-6.61-14.12a2.44,2.44,0,0,1-.26-1.56,2.26,2.26,0,0,1,4.27-.55q1.06,2.2,2.06,4.43a.77.77,0,0,0,.8.55A7.12,7.12,0,0,1,28.4,58.32l-.16.2a.59.59,0,0,0,.08.87.56.56,0,0,0,.85-.14,15.13,15.13,0,0,0,1.43-2.59,8.22,8.22,0,0,0-6.38-10.9,1.83,1.83,0,0,1-1.63-1.26,5.58,5.58,0,0,1-.49-2.24c0-4,0-8,0-12a1.92,1.92,0,1,1,3.83,0q0,5.21,0,10.42a2.07,2.07,0,0,0,0,.38.64.64,0,0,0,1.25,0,1.45,1.45,0,0,0,0-.34Q27.24,37.47,27.24,34.2Z"/></svg>